HIERARCHY
ROOT SpineBase
{
  OFFSET 0.000000 0.000000 0.000000
  CHANNELS 6 Xposition Yposition Zposition Zrotation Xrotation Yrotation
  JOINT SpineMid
  {
    OFFSET 0.000000 33.019492 0.000000
    CHANNELS 3 Zrotation Xrotation Yrotation
    JOINT SpineShoulder
    {
      OFFSET -0.048349 24.431980 -0.799172
      CHANNELS 3 Zrotation Xrotation Yrotation
      JOINT Neck
      {
        OFFSET -0.045671 8.055876 -0.615155
        CHANNELS 3 Zrotation Xrotation Yrotation
        JOINT Head
        {
          OFFSET -7.894027 9.120506 -0.766026
          CHANNELS 3 Zrotation Xrotation Yrotation
          End Site
          {
            OFFSET 0 0 0
          }
        }
      }
      JOINT ShoulderLeft
      {
        OFFSET -12.774366 -7.502188 12.810525
        CHANNELS 3 Zrotation Xrotation Yrotation
        JOINT ElbowLeft
        {
          OFFSET -0.526219 -22.615975 -3.221621
          CHANNELS 3 Zrotation Xrotation Yrotation
          JOINT WristLeft
          {
            OFFSET 8.696004 -10.023924 -17.265098
            CHANNELS 3 Zrotation Xrotation Yrotation
            JOINT HandLeft
            {
              OFFSET 1.977772 -4.397952 -5.473584
              CHANNELS 3 Zrotation Xrotation Yrotation
              JOINT HandTipLeft
              {
                OFFSET 6.222703 -6.449737 -3.149896
                CHANNELS 3 Zrotation Xrotation Yrotation
                End Site
                {
                  OFFSET 0 0 0
                }
              }
              JOINT ThumbLeft
              {
                OFFSET -4.072012 -4.772201 -2.594310
                CHANNELS 3 Zrotation Xrotation Yrotation
                End Site
                {
                  OFFSET 0 0 0
                }
              }
            }
          }
        }
      }
      JOINT ShoulderRight
      {
        OFFSET 11.021745 -2.186273 -11.344187
        CHANNELS 3 Zrotation Xrotation Yrotation
        JOINT ElbowRight
        {
          OFFSET 4.817964 -20.956491 -6.261910
          CHANNELS 3 Zrotation Xrotation Yrotation
          JOINT WristRight
          {
            OFFSET -9.832764 -18.869569 -2.555975
            CHANNELS 3 Zrotation Xrotation Yrotation
            JOINT HandRight
            {
              OFFSET -4.927329 -6.011687 4.257880
              CHANNELS 3 Zrotation Xrotation Yrotation
              JOINT HandTipRight
              {
                OFFSET -7.066778 -4.351412 -0.314438
                CHANNELS 3 Zrotation Xrotation Yrotation
                End Site
                {
                  OFFSET 0 0 0
                }
              }
              JOINT ThumbRight
              {
                OFFSET -6.074521 4.164612 0.462625
                CHANNELS 3 Zrotation Xrotation Yrotation
                End Site
                {
                  OFFSET 0 0 0
                }
              }
            }
          }
        }
      }
    }
  }
  JOINT HipLeft
  {
    OFFSET -5.462765 -0.683108 1.351187
    CHANNELS 3 Zrotation Xrotation Yrotation
    JOINT KneeLeft
    {
      OFFSET 1.209700 -33.953878 0.597421
      CHANNELS 3 Zrotation Xrotation Yrotation
      JOINT AnkleLeft
      {
        OFFSET 7.622567 -36.040085 3.481404
        CHANNELS 3 Zrotation Xrotation Yrotation
        JOINT FootLeft
        {
          OFFSET -2.405246 -8.497575 -6.457349
          CHANNELS 3 Zrotation Xrotation Yrotation
          End Site
          {
            OFFSET 0 0 0
          }
        }
      }
    }
  }
  JOINT HipRight
  {
    OFFSET 4.861359 1.841172 -8.979141
    CHANNELS 3 Zrotation Xrotation Yrotation
    JOINT KneeRight
    {
      OFFSET 6.538939 -32.778679 -4.089183
      CHANNELS 3 Zrotation Xrotation Yrotation
      JOINT AnkleRight
      {
        OFFSET 4.723533 -39.943641 7.300142
        CHANNELS 3 Zrotation Xrotation Yrotation
        JOINT FootRight
        {
          OFFSET -2.448553 -8.740326 -5.340518
          CHANNELS 3 Zrotation Xrotation Yrotation
          End Site
          {
            OFFSET 0 0 0
          }
        }
      }
    }
  }
}
MOTION
Frames: 15
Frame Time: 0.033333
28.831825 82.281452 366.819740 -3.541533 -1.273755 36.140719 0.269022 0.018364 -36.288333 0.001115 -0.301177 -0.159933 -17.000829 3.006288 0.829851 0.000000 0.000000 0.000000 -2.066730 3.513719 1.168033 2.224379 -7.446094 -0.136806 5.869958 -11.862369 -14.572322 -19.087522 4.418514 16.490231 0.000000 0.000000 0.000000 0.000000 0.000000 0.000000 1.628731 -4.251916 -0.624132 -0.285453 10.026844 -1.014612 0.533663 -8.357492 3.985570 2.135580 8.180389 -9.090835 0.000000 0.000000 0.000000 0.000000 0.000000 0.000000 -3.574363 9.112771 -35.703829 5.839051 -14.208012 -3.215263 5.236384 -1.686231 6.580375 0.000000 0.000000 0.000000 4.086975 2.268535 -35.362476 4.679538 -4.840676 -0.174977 -0.996396 2.562741 -1.909240 0.000000 0.000000 0.000000
27.772339 81.814466 367.564544 -2.967750 -1.293533 34.930201 0.156341 0.025162 -35.057853 0.025030 -0.195637 -0.133122 -17.029852 3.285646 1.173370 0.000000 0.000000 0.000000 -1.713977 2.537628 0.962027 1.788098 -4.925912 0.778891 4.573327 -15.663693 -15.893849 -22.671386 6.426989 21.891997 0.000000 0.000000 0.000000 0.000000 0.000000 0.000000 2.112478 -4.693994 -1.032947 -1.082249 11.403614 -1.116103 -2.163648 -11.203725 3.736549 7.968028 11.464591 -12.792177 0.000000 0.000000 0.000000 0.000000 0.000000 0.000000 -6.145398 9.892069 -34.310116 4.449281 -14.782658 -4.281491 4.848211 5.590472 7.875931 0.000000 0.000000 0.000000 4.340137 2.684809 -34.173042 4.840967 -4.340624 0.110737 -0.452561 2.132606 -3.140552 0.000000 0.000000 0.000000
26.343181 81.361322 368.398808 -2.163605 -1.004315 33.950384 0.039166 0.001886 -34.040853 0.072078 -0.034989 -0.092563 -17.851164 2.929205 0.971744 0.000000 0.000000 0.000000 -1.221083 1.209821 0.670412 0.849833 -2.571964 1.692828 3.396583 -18.364003 -16.755526 -26.351238 6.717626 26.285111 0.000000 0.000000 0.000000 0.000000 0.000000 0.000000 2.842982 -4.358754 -1.319942 -0.627779 11.350598 -1.673360 -9.163871 -13.820652 1.182245 15.934653 15.150650 -15.808648 0.000000 0.000000 0.000000 0.000000 0.000000 0.000000 -8.454737 9.832245 -33.233116 2.549391 -14.809697 -5.185915 5.673225 11.119302 8.362464 0.000000 0.000000 0.000000 4.647719 2.740067 -33.261006 4.609483 -3.996663 0.440357 -0.472818 2.463317 -4.241669 0.000000 0.000000 0.000000
24.867856 80.915835 369.208404 -1.128925 -0.546292 32.568667 -0.031212 -0.051503 -32.612738 0.067460 0.009102 -0.046502 -18.818993 2.976361 1.286578 0.000000 0.000000 0.000000 -0.553894 0.759812 0.323716 -0.853958 -0.961444 3.409876 4.701070 -22.475080 -22.692039 -31.059437 7.381292 35.462836 0.000000 0.000000 0.000000 0.000000 0.000000 0.000000 2.941515 -3.812818 -1.456492 -0.545684 10.416802 -1.877823 -14.786237 -13.016611 -2.863746 21.615671 16.507542 -15.771936 0.000000 0.000000 0.000000 0.000000 0.000000 0.000000 -11.048791 9.391981 -31.793803 1.361695 -14.367027 -5.725379 7.804226 14.656458 7.391490 0.000000 0.000000 0.000000 5.021299 2.990651 -31.924144 4.049478 -4.090152 0.711539 -0.717491 2.151100 -4.893110 0.000000 0.000000 0.000000
22.763688 80.608606 370.401276 0.160947 -0.101637 31.180473 -0.085076 0.170283 -31.180203 -0.000000 0.000000 0.000000 -20.088936 3.079791 1.784679 0.000000 0.000000 0.000000 0.473392 0.954983 -0.093498 -2.710973 -0.858579 4.053349 5.853968 -25.953552 -27.339587 -34.921601 6.699888 42.374468 0.000000 0.000000 0.000000 0.000000 0.000000 0.000000 3.522356 -3.843118 -1.823731 -3.374830 10.049513 -1.315457 -17.182632 -10.614442 -7.161664 27.468224 15.508138 -12.223097 0.000000 0.000000 0.000000 0.000000 0.000000 0.000000 -12.307140 8.912766 -30.425962 -0.361809 -14.368187 -6.096172 13.839537 12.687165 3.503483 0.000000 0.000000 0.000000 5.588053 3.360793 -30.630460 3.542688 -4.024544 1.119785 -1.592949 1.669555 -5.575045 0.000000 0.000000 0.000000
20.368428 80.399397 371.808201 1.438638 0.150487 29.945237 -0.117620 -0.058844 -29.901138 -0.035627 0.017171 0.056946 -21.877292 3.901651 2.689742 0.000000 0.000000 0.000000 1.375139 2.025279 -0.581614 -4.620250 -1.892461 3.877072 5.866169 -29.125331 -30.265141 -34.774682 8.166111 44.226051 0.000000 0.000000 0.000000 0.000000 0.000000 0.000000 3.877314 -3.904863 -2.363444 -8.165359 10.801045 -0.456951 -16.574772 -9.208100 -10.256079 32.989990 12.995628 -5.216408 0.000000 0.000000 0.000000 0.000000 0.000000 0.000000 -12.235510 8.749039 -29.224624 -1.550249 -14.659540 -6.094276 11.236184 17.943277 4.049375 0.000000 0.000000 0.000000 6.582111 3.944988 -29.538124 2.777500 -4.153053 1.515275 -2.423920 1.438303 -6.370520 0.000000 0.000000 0.000000
18.053351 80.315070 373.231669 2.804458 0.329299 29.043209 -0.114297 -0.038469 -28.959790 -0.069248 0.010340 0.114168 -23.465372 4.348966 3.244229 0.000000 0.000000 0.000000 0.479467 2.217750 -0.765260 -4.648829 -2.941742 2.689206 7.348361 -28.807997 -30.823656 -35.981732 8.193962 46.825016 0.000000 0.000000 0.000000 0.000000 0.000000 0.000000 4.000408 -4.752105 -2.941597 -12.173873 12.103992 0.445533 -14.335473 -5.051660 -13.436026 39.304828 10.618304 0.649989 0.000000 0.000000 0.000000 0.000000 0.000000 0.000000 -12.205541 9.037683 -28.307679 -2.068070 -15.052319 -5.961904 12.078467 15.959224 2.997311 0.000000 0.000000 0.000000 6.970901 4.490569 -28.812300 2.634252 -3.136206 1.996803 -0.233742 -2.853261 -8.219272 0.000000 0.000000 0.000000
15.807057 80.297979 374.637156 4.116691 0.460637 27.789738 -0.094610 -0.029867 -27.670857 -0.103331 0.006188 0.169755 -24.396614 4.449042 3.343021 0.000000 0.000000 0.000000 0.153558 2.674610 -1.049908 -5.118620 -4.950546 0.760598 8.464620 -25.963335 -28.234756 -36.260949 3.676217 44.310379 0.000000 0.000000 0.000000 0.000000 0.000000 0.000000 3.825898 -5.937559 -3.486545 -16.156133 13.567335 1.622682 -11.233790 -0.171050 -16.743738 40.601491 7.480669 9.931612 0.000000 0.000000 0.000000 0.000000 0.000000 0.000000 -11.700514 9.238832 -27.086858 -2.411389 -15.341605 -5.620770 8.955264 20.862906 3.023722 0.000000 0.000000 0.000000 7.208373 5.100239 -27.747640 2.351102 -2.597879 2.356559 -0.401109 -2.550323 -9.554944 0.000000 0.000000 0.000000
13.546274 80.356105 375.983670 5.097207 0.485610 26.383779 -0.055813 -0.014032 -26.237624 -0.133864 0.013742 0.211135 -23.833914 4.473049 3.355836 0.000000 0.000000 0.000000 -0.643198 3.510023 -1.207300 -4.992489 -7.136515 -0.903737 8.087206 -26.519031 -27.580349 -35.551710 -0.149148 40.748543 0.000000 0.000000 0.000000 0.000000 0.000000 0.000000 4.020789 -6.896853 -3.981643 -19.752639 14.523899 2.845004 -7.005972 5.476112 -19.745455 46.726257 4.692386 22.220160 0.000000 0.000000 0.000000 0.000000 0.000000 0.000000 -11.332809 9.296740 -25.715970 -2.308219 -14.983765 -5.077949 6.554309 22.173173 3.224837 0.000000 0.000000 0.000000 7.292385 5.380272 -26.536813 2.420769 -1.801135 2.744627 -2.960712 1.173829 -10.488126 0.000000 0.000000 0.000000
11.564595 80.553176 377.120363 5.635531 0.407385 24.937797 0.033465 -0.006807 -24.771717 -0.133365 0.026127 0.237390 -22.562963 4.175541 2.978468 0.000000 0.000000 0.000000 -1.954097 3.940919 -1.160089 -4.269732 -8.942113 -2.392045 6.116725 -27.178486 -25.056720 -32.988952 -5.111934 30.606475 0.000000 0.000000 0.000000 0.000000 0.000000 0.000000 4.066043 -7.951437 -4.355275 -22.164787 15.529970 3.932796 -7.068599 9.844423 -24.176264 50.871494 4.618249 33.377117 0.000000 0.000000 0.000000 0.000000 0.000000 0.000000 -10.732351 9.175904 -24.320663 -2.024270 -14.406341 -4.490041 5.879626 20.821586 2.466622 0.000000 0.000000 0.000000 7.094467 5.400217 -25.229359 3.225714 -0.718584 3.161554 -7.606224 7.270146 -10.711538 0.000000 0.000000 0.000000
9.885073 80.875832 378.118761 5.747207 0.282778 23.770775 0.102530 0.000288 -23.594964 -0.155304 0.023317 0.243021 -21.160175 3.598937 2.289159 0.000000 0.000000 0.000000 -2.907119 3.924836 -1.027233 -3.760812 -10.298254 -3.489124 2.927736 -28.310832 -21.196234 -31.846174 -4.315742 24.675282 0.000000 0.000000 0.000000 0.000000 0.000000 0.000000 4.377534 -8.950260 -4.649400 -23.928702 16.377622 4.960257 -9.326433 13.119523 -28.542727 52.989566 4.856779 41.837466 0.000000 0.000000 0.000000 0.000000 0.000000 0.000000 -9.710688 8.886589 -23.229737 -2.230054 -13.767422 -4.048604 7.410251 16.805590 0.873972 0.000000 0.000000 0.000000 6.661322 5.064525 -24.138101 4.277891 0.628733 3.467383 -13.143456 14.218744 -9.919413 0.000000 0.000000 0.000000
8.313993 81.219978 378.980398 5.690197 0.294157 22.071514 -0.026787 0.019165 -21.900768 -0.173292 0.030511 0.233287 -19.237375 2.935668 1.646635 0.000000 0.000000 0.000000 -3.023990 3.947059 -0.956576 -3.991031 -11.669432 -4.019997 -0.096633 -28.312211 -16.218958 -30.302074 -2.349249 17.560568 0.000000 0.000000 0.000000 0.000000 0.000000 0.000000 4.810639 -9.504760 -4.771025 -23.787208 17.089767 5.096200 -14.101526 15.654004 -32.636794 49.997247 6.008244 39.646527 0.000000 0.000000 0.000000 0.000000 0.000000 0.000000 -9.331923 7.832544 -21.622281 -1.703223 -12.246338 -3.394364 5.056678 19.273333 0.739532 0.000000 0.000000 0.000000 6.437440 4.572533 -22.509421 4.855774 1.786956 3.665230 -19.253036 20.459446 -7.885517 0.000000 0.000000 0.000000
7.150843 81.498121 379.589160 5.289377 0.315620 20.943031 0.033828 0.048120 -20.785868 -0.134107 0.055461 0.220179 -17.604563 1.662742 0.457502 0.000000 0.000000 0.000000 -3.203734 3.512025 -0.834579 -4.020658 -11.976206 -3.872397 -1.903999 -24.534079 -9.641648 -29.075541 -0.369804 12.075161 0.000000 0.000000 0.000000 0.000000 0.000000 0.000000 5.517643 -9.089344 -4.734446 -22.235368 16.478351 4.448861 -20.281788 14.713250 -33.688065 40.695803 6.603846 30.596694 0.000000 0.000000 0.000000 0.000000 0.000000 0.000000 -8.810212 6.480672 -20.599051 -1.422937 -10.395838 -2.841981 6.273863 16.089810 -0.693519 0.000000 0.000000 0.000000 6.323216 3.910111 -21.406509 5.304616 2.648136 3.741928 -25.128574 25.428772 -4.984796 0.000000 0.000000 0.000000
6.525128 81.725666 379.924274 4.895444 0.423112 19.621293 0.075194 0.058625 -19.479761 -0.108144 0.065199 0.206820 -16.517625 1.039639 0.000966 0.000000 0.000000 0.000000 -3.093070 3.428026 -0.775916 -4.268072 -11.859862 -2.884036 -0.128798 -22.333019 -11.815944 -28.714479 0.508938 16.088084 0.000000 0.000000 0.000000 0.000000 0.000000 0.000000 5.361104 -8.576502 -4.486193 -21.025389 15.654720 3.948226 -21.090202 15.699528 -34.220372 33.132658 5.460970 26.119640 0.000000 0.000000 0.000000 0.000000 0.000000 0.000000 -8.948717 4.747004 -19.390547 -0.855847 -8.086510 -2.313052 8.650648 10.670672 -2.231397 0.000000 0.000000 0.000000 5.937821 3.302579 -20.072297 5.520027 3.554036 3.684289 -29.251278 28.522315 -2.458324 0.000000 0.000000 0.000000
5.824435 81.942619 380.438967 4.781683 0.383174 18.469388 -0.019444 0.119765 -18.334409 -0.157423 0.099467 0.192114 -16.707492 1.015600 -0.021467 0.000000 0.000000 0.000000 -2.829059 3.361019 -0.751814 -4.272191 -11.460209 -2.482427 2.039098 -18.631190 -12.435843 -26.818101 4.638814 21.747787 0.000000 0.000000 0.000000 0.000000 0.000000 0.000000 5.904919 -8.501493 -4.503232 -21.470525 15.504990 4.037695 -18.541260 18.800188 -35.524586 33.469764 2.089171 29.889496 0.000000 0.000000 0.000000 0.000000 0.000000 0.000000 -8.794033 3.567247 -18.315404 -0.778166 -6.247319 -1.909079 12.328063 2.688404 -3.737208 0.000000 0.000000 0.000000 5.379635 2.949979 -18.932527 6.044201 4.855227 3.677282 -32.075931 29.666450 -1.033930 0.000000 0.000000 0.000000
